PathFileType	4	(X/Y/Z)	S1_rest_slow_left.trc
DataRate	CameraRate	NumFrames	NumMarkers	Units	OrigDataRate	OrigDataStartFrame	OrigNumFrames
250.00	250.00	17	18	mm	250.00	4523	36183
Frame#	Time	c7	r_should	l_should	clavicle	r_upa	r_elb_l	r_elb_m	r_low	r_wri_l	r_wri_m	r_met	l_upa	l_elb_l	l_elb_m	l_low	l_wri_l	l_wri_m	l_met
	X1	Y1	Z1	X2	Y2	Z2	X3	Y3	Z3	X4	Y4	Z4	X5	Y5	Z5	X6	Y6	Z6	X7	Y7	Z7	X8	Y8	Z8	X9	Y9	Z9	X10	Y10	Z10	X11	Y11	Z11	X12	Y12	Z12	X13	Y13	Z13	X14	Y14	Z14	X15	Y15	Z15	X16	Y16	Z16	X17	Y17	Z17	X18	Y18	Z18
4523	18.08800	984.32745	1419.84766	156.21126	1042.94153	1363.36230	324.06339	1022.85669	1358.12354	-17.32638	1114.65588	1298.58899	150.58614	1052.24231	1159.38123	402.98828	1047.29700	1077.32788	432.12122	982.29156	1041.69373	374.94186	1094.85095	956.63977	437.15543	1139.86694	842.60559	438.97028	1065.30859	823.69971	427.87872	1138.99158	766.95074	472.97006	1049.35864	1136.87451	-49.60471	1061.83362	1031.19836	-65.45255	1064.91345	1025.84216	39.86236	1092.10999	912.71368	-62.49497	1125.73743	802.36914	-63.49335	1125.68115	793.51190	15.72214	1110.20898	715.85968	-51.27833
4524	18.09200	984.34149	1419.84985	156.20569	1042.93909	1363.35156	324.06396	1022.87671	1358.12732	-17.32496	1114.65735	1298.57593	150.59143	1052.23596	1159.37109	402.98560	1047.27148	1077.30957	432.09692	982.27832	1041.67993	374.91876	1095.10583	956.50580	437.33102	1139.86365	842.59784	438.95880	1065.30725	823.67651	427.84930	1138.97961	766.93365	472.94785	1049.35034	1136.87195	-49.60342	1061.82349	1031.19482	-65.45469	1064.90906	1025.83716	39.86096	1092.10559	912.72559	-62.49219	1125.73755	802.36816	-63.49426	1125.67517	793.51599	15.72432	1110.21606	715.85181	-51.27887
4525	18.09600	984.35468	1419.85437	156.21049	1042.93433	1363.34143	324.07394	1022.89703	1358.12671	-17.31783	1114.65674	1298.56372	150.60081	1052.22827	1159.35706	402.98386	1047.24817	1077.29053	432.08041	982.26440	1041.66663	374.90027	1094.73401	956.66479	437.07156	1139.85559	842.59198	438.94852	1065.30298	823.65833	427.82831	1138.96533	766.91718	472.93121	1049.34119	1136.86755	-49.60418	1061.82166	1031.19348	-65.45387	1064.89392	1025.83826	39.86008	1092.10156	912.72784	-62.49070	1125.73584	802.36688	-63.48586	1125.67261	793.51642	15.72287	1110.21509	715.85236	-51.27882
4526	18.10000	984.37152	1419.85767	156.22612	1042.92700	1363.33765	324.08344	1022.91272	1358.12585	-17.30836	1114.65710	1298.55212	150.61697	1052.21643	1159.34460	402.97327	1047.22815	1077.27356	432.06488	982.50262	1041.39661	375.01096	1094.63489	956.69800	436.99414	1139.83862	842.58423	438.93204	1065.29797	823.64941	427.81766	1138.95276	766.90814	472.92651	1049.33521	1136.87036	-49.60195	1061.82275	1031.18958	-65.44885	1064.88611	1025.84375	39.86191	1092.10461	912.73358	-62.47924	1125.73486	802.37231	-63.47593	1125.67407	793.52173	15.73250	1110.21484	715.86206	-51.26886
4527	18.10400	984.38568	1419.86194	156.24011	1042.91907	1363.33557	324.09476	1022.92847	1358.12805	-17.30262	1114.65710	1298.53845	150.62543	1051.87915	1159.47815	402.81366	1047.20850	1077.26733	432.05905	983.06183	1040.80420	375.28467	1094.59167	956.70349	436.97440	1139.82178	842.58282	438.93439	1065.28735	823.63538	427.80771	1138.93762	766.90674	472.92529	1049.33484	1136.87671	-49.59628	1061.82190	1031.19019	-65.43666	1064.88318	1025.84497	39.85997	1092.11133	912.74146	-62.46478	1125.73572	802.37830	-63.45984	1125.67639	793.53253	15.76110	1110.21326	715.87427	-51.25264
4528	18.10800	984.40015	1419.86292	156.24550	1042.91162	1363.33154	324.10104	1022.94824	1358.12854	-17.29477	1114.66187	1298.52124	150.63765	1051.13049	1159.77661	402.46094	1047.19067	1077.26062	432.05960	983.18823	1040.65112	375.34036	1094.56702	956.70020	436.96475	1139.80676	842.57593	438.93433	1065.27808	823.63074	427.80124	1138.92834	766.89899	472.92258	1049.33545	1136.88489	-49.58987	1061.83032	1031.19287	-65.42738	1064.88208	1025.85278	39.85788	1092.11450	912.74359	-62.45482	1125.73767	802.38568	-63.45260	1125.67334	793.53247	15.78020	1110.21826	715.87854	-51.23511
4529	18.11200	984.41382	1419.86230	156.25114	1042.90820	1363.32568	324.10840	1022.96936	1358.13232	-17.29024	1114.66174	1298.50623	150.64519	1050.92688	1159.83484	402.36020	1047.16382	1077.24475	432.05219	983.20514	1040.61377	375.33594	1094.54871	956.68939	436.95218	1139.79529	842.56458	438.92090	1065.27100	823.62421	427.79095	1138.92261	766.89117	472.91803	1049.34229	1136.88806	-49.58463	1061.84216	1031.19312	-65.42867	1064.87732	1025.85291	39.86402	1092.12036	912.74652	-62.45321	1125.74426	802.38629	-63.44120	1125.66846	793.54547	15.78203	1110.22827	715.88208	-51.22743
4530	18.11600	984.43005	1419.86108	156.25185	1042.90417	1363.31885	324.11456	1022.98499	1358.13586	-17.29023	1114.65869	1298.49255	150.65193	1050.86182	1159.84033	402.33127	1047.13721	1077.22937	432.03647	983.20502	1040.59985	375.31689	1094.52979	956.67493	436.94269	1139.78320	842.55383	438.91086	1065.26294	823.60754	427.78125	1138.91272	766.88165	472.91385	1049.35315	1136.89368	-49.58589	1061.85254	1031.19739	-65.42870	1064.87915	1025.85510	39.86863	1092.12134	912.74878	-62.45710	1125.74524	802.38092	-63.43383	1125.66260	793.55365	15.77512	1110.23840	715.88550	-51.22581
4531	18.12000	984.44415	1419.85852	156.24690	1042.90125	1363.31128	324.11847	1022.99713	1358.13855	-17.28960	1114.65479	1298.47852	150.65149	1050.83130	1159.82996	402.31796	1047.11255	1077.21948	432.02188	983.19830	1040.58215	375.29108	1094.50940	956.65759	436.94092	1139.76965	842.54248	438.90262	1065.25464	823.60114	427.76764	1138.89709	766.87457	472.90707	1049.36523	1136.89429	-49.58857	1061.85303	1031.19727	-65.43014	1064.87109	1025.86133	39.86536	1092.12585	912.74579	-62.46520	1125.74927	802.38171	-63.43243	1125.66101	793.54895	15.77493	1110.24316	715.88678	-51.23270
4532	18.12400	984.45612	1419.85657	156.23961	1042.89551	1363.30603	324.11493	1023.01001	1358.13879	-17.29422	1114.64990	1298.47095	150.64809	1050.81116	1159.81750	402.30649	1047.08716	1077.19617	432.00159	982.93719	1040.82910	375.14050	1094.48901	956.64404	436.93784	1139.75696	842.52515	438.89304	1065.25049	823.59125	427.75018	1138.88123	766.86578	472.89465	1049.37646	1136.89417	-49.59098	1061.86084	1031.19568	-65.43249	1064.86865	1025.86536	39.86015	1092.13232	912.74225	-62.46707	1125.75269	802.37744	-63.43293	1125.66797	793.54169	15.77675	1110.25098	715.88287	-51.23356
4533	18.12800	984.47009	1419.85278	156.23462	1042.89514	1363.29639	324.11487	1023.02454	1358.14270	-17.29802	1114.64880	1298.46265	150.64865	1051.12512	1159.67102	402.45700	1047.07129	1077.18225	431.97882	982.61407	1041.13660	374.96143	1094.47241	956.63947	436.92923	1139.74878	842.51172	438.88184	1065.24475	823.57416	427.72562	1138.86768	766.85089	472.88257	1049.39441	1136.89587	-49.59442	1061.86951	1031.19385	-65.43548	1064.87048	1025.85999	39.86348	1092.14282	912.73999	-62.46596	1125.75842	802.37457	-63.43435	1125.67053	793.53955	15.77543	1110.26074	715.87756	-51.23549
4534	18.13200	984.48407	1419.84875	156.22539	1042.89734	1363.28345	324.11615	1023.03937	1358.14404	-17.30284	1114.65442	1298.45740	150.65196	1051.85791	1159.34595	402.81015	1047.06055	1077.17554	431.96155	982.78516	1040.93555	375.02853	1094.46558	956.62738	436.91718	1139.74194	842.49939	438.87411	1065.24084	823.55096	427.70053	1138.85828	766.83698	472.86819	1049.41748	1136.89478	-49.59588	1061.87720	1031.19507	-65.43326	1064.87085	1025.85083	39.86612	1092.15430	912.73615	-62.46821	1125.77185	802.37708	-63.43639	1125.67017	793.54047	15.76917	1110.27185	715.87122	-51.24100
4535	18.13600	984.49969	1419.84131	156.21552	1042.90161	1363.27380	324.11023	1023.05481	1358.14050	-17.30437	1114.65955	1298.45142	150.65352	1052.03247	1159.25623	402.89413	1047.05164	1077.16699	431.94974	982.32104	1041.39050	374.77448	1094.45862	956.61450	436.90845	1139.74048	842.48822	438.86951	1065.23730	823.52686	427.67999	1138.85437	766.82330	472.85544	1049.44287	1136.89307	-49.60029	1061.88708	1031.19775	-65.42934	1064.87671	1025.85120	39.86639	1092.16382	912.73529	-62.47290	1125.78296	802.37256	-63.44431	1125.68115	793.53894	15.76310	1110.29639	715.86035	-51.24537
4536	18.14000	984.51733	1419.83337	156.21275	1042.90820	1363.26416	324.10419	1023.07404	1358.13879	-17.30531	1114.66431	1298.44739	150.64711	1052.07056	1159.23303	402.90479	1047.04846	1077.15479	431.94550	982.46539	1041.23572	374.82861	1094.45447	956.60718	436.90179	1139.74158	842.48175	438.86313	1065.24023	823.51459	427.66156	1138.84656	766.81140	472.84558	1049.47009	1136.89319	-49.60084	1061.90320	1031.19897	-65.43079	1064.88794	1025.84973	39.85929	1092.17554	912.73846	-62.48216	1125.79883	802.37177	-63.45067	1125.70081	793.53967	15.75963	1110.32898	715.84668	-51.24940
4537	18.14400	984.53259	1419.83044	156.21535	1042.90967	1363.25623	324.10455	1023.09204	1358.13892	-17.30079	1114.67285	1298.44666	150.65001	1052.07446	1159.22571	402.90125	1047.04761	1077.14490	431.95044	982.76355	1040.93018	374.96490	1094.45166	956.60529	436.90305	1139.74097	842.47479	438.85440	1065.23694	823.49939	427.65018	1138.84302	766.79767	472.83716	1049.49670	1136.89465	-49.59927	1061.91943	1031.20679	-65.42800	1064.89355	1025.84741	39.85277	1092.18555	912.73755	-62.48701	1125.81750	802.37946	-63.44943	1125.71545	793.54108	15.75291	1110.35205	715.84064	-51.24512
4538	18.14800	984.54614	1419.82678	156.22801	1042.91248	1363.24744	324.10825	1023.10980	1358.13989	-17.29183	1114.68237	1298.44714	150.65697	1052.07288	1159.21130	402.89481	1047.04590	1077.14124	431.95187	982.32745	1041.36401	374.74298	1094.45239	956.59686	436.89148	1139.73120	842.46704	438.84506	1065.23022	823.49481	427.64905	1138.84167	766.78076	472.83429	1049.52307	1136.89685	-49.59584	1061.92810	1031.20911	-65.43130	1064.89441	1025.84753	39.85767	1092.19910	912.73975	-62.48028	1125.83472	802.38495	-63.44733	1125.73438	793.54974	15.76032	1110.37170	715.84058	-51.23053
4539	18.15200	984.55975	1419.82751	156.24078	1042.91443	1363.24146	324.11356	1023.12781	1358.14209	-17.28513	1114.69360	1298.44385	150.66797	1052.06519	1159.19995	402.88657	1047.04468	1077.13660	431.95068	982.21875	1041.46643	374.68509	1094.44873	956.58728	436.88678	1139.72107	842.45978	438.84241	1065.22363	823.48419	427.64856	1138.82800	766.76520	472.82996	1049.54309	1136.90222	-49.59484	1061.94043	1031.20776	-65.42576	1064.91138	1025.85278	39.86364	1092.21265	912.74817	-62.47223	1125.85193	802.38416	-63.43555	1125.75879	793.55719	15.77404	1110.38757	715.83990	-51.21636
